<svg version="1.1" id="Layer_1" xmlns="http://www.w3.org/2000/svg" xmlns:xlink="http://www.w3.org/1999/xlink" x="0px" y="0px"
	 viewBox="0 0 18 18" enable-background="new 0 0 18 18" xml:space="preserve">
<g>
	<path d="M3.6,13c-1.7-2.3-1.7-5.6,0-7.9L2,3.5c-2.6,3.2-2.6,7.8,0,11.1L3.6,13z"/>
	<path d="M14.4,5c1.7,2.3,1.7,5.6,0,7.9l1.6,1.6c2.6-3.2,2.6-7.8,0-11.1L14.4,5z"/>
	<path d="M5,3.6c2.3-1.7,5.6-1.7,7.9,0L14.5,2C11.3-0.5,6.7-0.5,3.5,2L5,3.6z"/>
	<path d="M13,14.4c-2.3,1.7-5.6,1.7-7.9,0L3.5,16c3.2,2.6,7.8,2.6,11.1,0L13,14.4z"/>
</g>
</svg>
